<mxfile host="app.diagrams.net" modified="2021-07-21T05:42:03.130Z" agent="5.0 (Macintosh; Intel Mac OS X 10_15_7) AppleWebKit/537.36 (KHTML, like Gecko) Chrome/91.0.4472.114 Safari/537.36" etag="b09p_UF7k8rfOlGGHdml" version="14.8.6" type="github">
  <diagram id="I3d3OwOp4PPRDIS7dpdN" name="Page-1">
    <mxGraphModel dx="1773" dy="614" grid="1" gridSize="10" guides="1" tooltips="1" connect="1" arrows="1" fold="1" page="1" pageScale="1" pageWidth="827" pageHeight="1169" math="0" shadow="0">
      <root>
        <mxCell id="0" />
        <mxCell id="1" parent="0" />
        <mxCell id="VfLVzDu5CRr7L_U_nClk-71" style="edgeStyle=orthogonalEdgeStyle;rounded=0;orthogonalLoop=1;jettySize=auto;html=1;strokeColor=#000066;" edge="1" parent="1" source="VfLVzDu5CRr7L_U_nClk-1">
          <mxGeometry relative="1" as="geometry">
            <mxPoint x="200" y="240" as="targetPoint" />
            <Array as="points">
              <mxPoint x="190" y="185" />
              <mxPoint x="190" y="240" />
            </Array>
          </mxGeometry>
        </mxCell>
        <mxCell id="VfLVzDu5CRr7L_U_nClk-72" value="query" style="edgeLabel;html=1;align=center;verticalAlign=middle;resizable=0;points=[];" vertex="1" connectable="0" parent="VfLVzDu5CRr7L_U_nClk-71">
          <mxGeometry x="-0.2" y="-4" relative="1" as="geometry">
            <mxPoint as="offset" />
          </mxGeometry>
        </mxCell>
        <mxCell id="VfLVzDu5CRr7L_U_nClk-1" value="&lt;font face=&quot;Verdana&quot; color=&quot;#1a1a1a&quot;&gt;&lt;b&gt;中心云&lt;/b&gt;&lt;/font&gt;" style="html=1;outlineConnect=0;fillColor=#CCCCCC;strokeColor=#6881B3;gradientColor=none;gradientDirection=north;strokeWidth=2;shape=mxgraph.networks.cloud;fontColor=#ffffff;" vertex="1" parent="1">
          <mxGeometry x="245" y="160" width="90" height="50" as="geometry" />
        </mxCell>
        <mxCell id="VfLVzDu5CRr7L_U_nClk-6" value="" style="edgeStyle=orthogonalEdgeStyle;rounded=0;orthogonalLoop=1;jettySize=auto;html=1;" edge="1" parent="1" source="VfLVzDu5CRr7L_U_nClk-2">
          <mxGeometry relative="1" as="geometry">
            <mxPoint x="303" y="200" as="targetPoint" />
            <Array as="points" />
          </mxGeometry>
        </mxCell>
        <mxCell id="VfLVzDu5CRr7L_U_nClk-57" style="edgeStyle=orthogonalEdgeStyle;rounded=0;orthogonalLoop=1;jettySize=auto;html=1;strokeColor=#FF3333;" edge="1" parent="1" source="VfLVzDu5CRr7L_U_nClk-2" target="VfLVzDu5CRr7L_U_nClk-18">
          <mxGeometry relative="1" as="geometry" />
        </mxCell>
        <mxCell id="VfLVzDu5CRr7L_U_nClk-59" value="dispatcher" style="edgeLabel;html=1;align=center;verticalAlign=middle;resizable=0;points=[];" vertex="1" connectable="0" parent="VfLVzDu5CRr7L_U_nClk-57">
          <mxGeometry x="0.5146" relative="1" as="geometry">
            <mxPoint as="offset" />
          </mxGeometry>
        </mxCell>
        <mxCell id="VfLVzDu5CRr7L_U_nClk-58" style="edgeStyle=orthogonalEdgeStyle;rounded=0;orthogonalLoop=1;jettySize=auto;html=1;strokeColor=#FF3333;" edge="1" parent="1" source="VfLVzDu5CRr7L_U_nClk-2" target="VfLVzDu5CRr7L_U_nClk-37">
          <mxGeometry relative="1" as="geometry" />
        </mxCell>
        <mxCell id="VfLVzDu5CRr7L_U_nClk-2" value="AGG应用" style="fontColor=#0066CC;verticalAlign=top;verticalLabelPosition=bottom;labelPosition=center;align=center;html=1;outlineConnect=0;fillColor=#CCCCCC;strokeColor=#6881B3;gradientColor=none;gradientDirection=north;strokeWidth=2;shape=mxgraph.networks.desktop_pc;" vertex="1" parent="1">
          <mxGeometry x="288" y="250" width="30" height="60" as="geometry" />
        </mxCell>
        <mxCell id="VfLVzDu5CRr7L_U_nClk-20" style="edgeStyle=orthogonalEdgeStyle;rounded=0;orthogonalLoop=1;jettySize=auto;html=1;" edge="1" parent="1" source="VfLVzDu5CRr7L_U_nClk-3">
          <mxGeometry relative="1" as="geometry">
            <mxPoint x="338" y="190" as="targetPoint" />
          </mxGeometry>
        </mxCell>
        <mxCell id="VfLVzDu5CRr7L_U_nClk-3" value="delta-template" style="fontColor=#0066CC;verticalAlign=top;verticalLabelPosition=bottom;labelPosition=center;align=center;html=1;outlineConnect=0;fillColor=#CCCCCC;strokeColor=#6881B3;gradientColor=none;gradientDirection=north;strokeWidth=2;shape=mxgraph.networks.desktop_pc;" vertex="1" parent="1">
          <mxGeometry x="388" y="250" width="34" height="60" as="geometry" />
        </mxCell>
        <mxCell id="VfLVzDu5CRr7L_U_nClk-9" style="edgeStyle=orthogonalEdgeStyle;rounded=0;orthogonalLoop=1;jettySize=auto;html=1;entryX=0.14;entryY=1;entryDx=0;entryDy=0;entryPerimeter=0;" edge="1" parent="1" source="VfLVzDu5CRr7L_U_nClk-4">
          <mxGeometry relative="1" as="geometry">
            <mxPoint x="270.5999999999999" y="200" as="targetPoint" />
          </mxGeometry>
        </mxCell>
        <mxCell id="VfLVzDu5CRr7L_U_nClk-4" value="delta-contract-center" style="fontColor=#0066CC;verticalAlign=top;verticalLabelPosition=bottom;labelPosition=center;align=center;html=1;outlineConnect=0;fillColor=#CCCCCC;strokeColor=#6881B3;gradientColor=none;gradientDirection=north;strokeWidth=2;shape=mxgraph.networks.desktop_pc;" vertex="1" parent="1">
          <mxGeometry x="188" y="250" width="30" height="60" as="geometry" />
        </mxCell>
        <mxCell id="VfLVzDu5CRr7L_U_nClk-50" style="edgeStyle=orthogonalEdgeStyle;rounded=0;orthogonalLoop=1;jettySize=auto;html=1;strokeColor=#FF3333;" edge="1" parent="1" source="VfLVzDu5CRr7L_U_nClk-16">
          <mxGeometry relative="1" as="geometry">
            <mxPoint x="220" y="85" as="targetPoint" />
          </mxGeometry>
        </mxCell>
        <mxCell id="VfLVzDu5CRr7L_U_nClk-51" value="update" style="edgeLabel;html=1;align=center;verticalAlign=middle;resizable=0;points=[];" vertex="1" connectable="0" parent="VfLVzDu5CRr7L_U_nClk-50">
          <mxGeometry x="-0.4167" y="4" relative="1" as="geometry">
            <mxPoint as="offset" />
          </mxGeometry>
        </mxCell>
        <mxCell id="VfLVzDu5CRr7L_U_nClk-16" value="" style="fontColor=#0066CC;verticalAlign=top;verticalLabelPosition=bottom;labelPosition=center;align=center;html=1;outlineConnect=0;fillColor=#CCCCCC;gradientColor=none;gradientDirection=north;strokeWidth=2;shape=mxgraph.networks.user_male;strokeColor=#FF3333;" vertex="1" parent="1">
          <mxGeometry x="60" y="40" width="40" height="90" as="geometry" />
        </mxCell>
        <mxCell id="VfLVzDu5CRr7L_U_nClk-66" style="edgeStyle=orthogonalEdgeStyle;rounded=0;orthogonalLoop=1;jettySize=auto;html=1;strokeColor=#000066;" edge="1" parent="1" source="VfLVzDu5CRr7L_U_nClk-17">
          <mxGeometry relative="1" as="geometry">
            <mxPoint x="350" y="80" as="targetPoint" />
          </mxGeometry>
        </mxCell>
        <mxCell id="VfLVzDu5CRr7L_U_nClk-67" value="query" style="edgeLabel;html=1;align=center;verticalAlign=middle;resizable=0;points=[];" vertex="1" connectable="0" parent="VfLVzDu5CRr7L_U_nClk-66">
          <mxGeometry x="0.1453" y="1" relative="1" as="geometry">
            <mxPoint as="offset" />
          </mxGeometry>
        </mxCell>
        <mxCell id="VfLVzDu5CRr7L_U_nClk-17" value="" style="fontColor=#0066CC;verticalAlign=top;verticalLabelPosition=bottom;labelPosition=center;align=center;html=1;outlineConnect=0;fillColor=#CCCCCC;strokeColor=#6881B3;gradientColor=none;gradientDirection=north;strokeWidth=2;shape=mxgraph.networks.user_female;" vertex="1" parent="1">
          <mxGeometry x="467" y="30" width="40" height="100" as="geometry" />
        </mxCell>
        <mxCell id="VfLVzDu5CRr7L_U_nClk-61" style="edgeStyle=orthogonalEdgeStyle;rounded=0;orthogonalLoop=1;jettySize=auto;html=1;strokeColor=#FF3333;" edge="1" parent="1" source="VfLVzDu5CRr7L_U_nClk-18" target="VfLVzDu5CRr7L_U_nClk-2">
          <mxGeometry relative="1" as="geometry" />
        </mxCell>
        <mxCell id="VfLVzDu5CRr7L_U_nClk-18" value="&lt;font color=&quot;#1a1a1a&quot;&gt;阿里云&lt;/font&gt;" style="html=1;outlineConnect=0;fillColor=#CCCCCC;strokeColor=#6881B3;gradientColor=none;gradientDirection=north;strokeWidth=2;shape=mxgraph.networks.cloud;fontColor=#ffffff;" vertex="1" parent="1">
          <mxGeometry x="84" y="360" width="90" height="50" as="geometry" />
        </mxCell>
        <mxCell id="VfLVzDu5CRr7L_U_nClk-21" style="edgeStyle=orthogonalEdgeStyle;rounded=0;orthogonalLoop=1;jettySize=auto;html=1;exitX=0.5;exitY=1;exitDx=0;exitDy=0;exitPerimeter=0;" edge="1" parent="1">
          <mxGeometry relative="1" as="geometry">
            <mxPoint x="500" y="410" as="sourcePoint" />
            <mxPoint x="500" y="410" as="targetPoint" />
          </mxGeometry>
        </mxCell>
        <mxCell id="VfLVzDu5CRr7L_U_nClk-27" style="edgeStyle=orthogonalEdgeStyle;rounded=0;orthogonalLoop=1;jettySize=auto;html=1;" edge="1" parent="1" source="VfLVzDu5CRr7L_U_nClk-23">
          <mxGeometry relative="1" as="geometry">
            <mxPoint x="80" y="400" as="targetPoint" />
          </mxGeometry>
        </mxCell>
        <mxCell id="VfLVzDu5CRr7L_U_nClk-23" value="delta-cntract" style="fontColor=#0066CC;verticalAlign=top;verticalLabelPosition=bottom;labelPosition=center;align=center;html=1;outlineConnect=0;fillColor=#CCCCCC;strokeColor=#6881B3;gradientColor=none;gradientDirection=north;strokeWidth=2;shape=mxgraph.networks.desktop_pc;" vertex="1" parent="1">
          <mxGeometry x="40" y="460" width="34" height="60" as="geometry" />
        </mxCell>
        <mxCell id="VfLVzDu5CRr7L_U_nClk-28" value="" style="edgeStyle=orthogonalEdgeStyle;rounded=0;orthogonalLoop=1;jettySize=auto;html=1;" edge="1" parent="1" source="VfLVzDu5CRr7L_U_nClk-24" target="VfLVzDu5CRr7L_U_nClk-18">
          <mxGeometry relative="1" as="geometry" />
        </mxCell>
        <mxCell id="VfLVzDu5CRr7L_U_nClk-24" value="delta-template" style="fontColor=#0066CC;verticalAlign=top;verticalLabelPosition=bottom;labelPosition=center;align=center;html=1;outlineConnect=0;fillColor=#CCCCCC;strokeColor=#6881B3;gradientColor=none;gradientDirection=north;strokeWidth=2;shape=mxgraph.networks.desktop_pc;" vertex="1" parent="1">
          <mxGeometry x="120" y="460" width="34" height="60" as="geometry" />
        </mxCell>
        <mxCell id="VfLVzDu5CRr7L_U_nClk-29" style="edgeStyle=orthogonalEdgeStyle;rounded=0;orthogonalLoop=1;jettySize=auto;html=1;" edge="1" parent="1" source="VfLVzDu5CRr7L_U_nClk-25">
          <mxGeometry relative="1" as="geometry">
            <mxPoint x="180" y="410" as="targetPoint" />
          </mxGeometry>
        </mxCell>
        <mxCell id="VfLVzDu5CRr7L_U_nClk-25" value="delta-contract-center" style="fontColor=#0066CC;verticalAlign=top;verticalLabelPosition=bottom;labelPosition=center;align=center;html=1;outlineConnect=0;fillColor=#CCCCCC;strokeColor=#6881B3;gradientColor=none;gradientDirection=north;strokeWidth=2;shape=mxgraph.networks.desktop_pc;" vertex="1" parent="1">
          <mxGeometry x="200" y="460" width="34" height="60" as="geometry" />
        </mxCell>
        <mxCell id="VfLVzDu5CRr7L_U_nClk-62" style="edgeStyle=orthogonalEdgeStyle;rounded=0;orthogonalLoop=1;jettySize=auto;html=1;strokeColor=#FF3333;" edge="1" parent="1" source="VfLVzDu5CRr7L_U_nClk-37">
          <mxGeometry relative="1" as="geometry">
            <mxPoint x="300" y="310" as="targetPoint" />
          </mxGeometry>
        </mxCell>
        <mxCell id="VfLVzDu5CRr7L_U_nClk-63" value="AggResult" style="edgeLabel;html=1;align=center;verticalAlign=middle;resizable=0;points=[];" vertex="1" connectable="0" parent="VfLVzDu5CRr7L_U_nClk-62">
          <mxGeometry x="0.5789" y="4" relative="1" as="geometry">
            <mxPoint as="offset" />
          </mxGeometry>
        </mxCell>
        <mxCell id="VfLVzDu5CRr7L_U_nClk-37" value="&lt;font color=&quot;#1a1a1a&quot;&gt;华为云&lt;/font&gt;" style="html=1;outlineConnect=0;fillColor=#CCCCCC;strokeColor=#6881B3;gradientColor=none;gradientDirection=north;strokeWidth=2;shape=mxgraph.networks.cloud;fontColor=#ffffff;" vertex="1" parent="1">
          <mxGeometry x="434" y="360" width="90" height="50" as="geometry" />
        </mxCell>
        <mxCell id="VfLVzDu5CRr7L_U_nClk-38" style="edgeStyle=orthogonalEdgeStyle;rounded=0;orthogonalLoop=1;jettySize=auto;html=1;" edge="1" parent="1" source="VfLVzDu5CRr7L_U_nClk-39">
          <mxGeometry relative="1" as="geometry">
            <mxPoint x="430" y="400" as="targetPoint" />
          </mxGeometry>
        </mxCell>
        <mxCell id="VfLVzDu5CRr7L_U_nClk-39" value="delta-cntract" style="fontColor=#0066CC;verticalAlign=top;verticalLabelPosition=bottom;labelPosition=center;align=center;html=1;outlineConnect=0;fillColor=#CCCCCC;strokeColor=#6881B3;gradientColor=none;gradientDirection=north;strokeWidth=2;shape=mxgraph.networks.desktop_pc;" vertex="1" parent="1">
          <mxGeometry x="390" y="460" width="34" height="60" as="geometry" />
        </mxCell>
        <mxCell id="VfLVzDu5CRr7L_U_nClk-40" value="" style="edgeStyle=orthogonalEdgeStyle;rounded=0;orthogonalLoop=1;jettySize=auto;html=1;" edge="1" parent="1" source="VfLVzDu5CRr7L_U_nClk-41" target="VfLVzDu5CRr7L_U_nClk-37">
          <mxGeometry relative="1" as="geometry" />
        </mxCell>
        <mxCell id="VfLVzDu5CRr7L_U_nClk-41" value="delta-template" style="fontColor=#0066CC;verticalAlign=top;verticalLabelPosition=bottom;labelPosition=center;align=center;html=1;outlineConnect=0;fillColor=#CCCCCC;strokeColor=#6881B3;gradientColor=none;gradientDirection=north;strokeWidth=2;shape=mxgraph.networks.desktop_pc;" vertex="1" parent="1">
          <mxGeometry x="470" y="460" width="34" height="60" as="geometry" />
        </mxCell>
        <mxCell id="VfLVzDu5CRr7L_U_nClk-42" style="edgeStyle=orthogonalEdgeStyle;rounded=0;orthogonalLoop=1;jettySize=auto;html=1;" edge="1" parent="1" source="VfLVzDu5CRr7L_U_nClk-43">
          <mxGeometry relative="1" as="geometry">
            <mxPoint x="530" y="410" as="targetPoint" />
          </mxGeometry>
        </mxCell>
        <mxCell id="VfLVzDu5CRr7L_U_nClk-43" value="delta-contract-center" style="fontColor=#0066CC;verticalAlign=top;verticalLabelPosition=bottom;labelPosition=center;align=center;html=1;outlineConnect=0;fillColor=#CCCCCC;strokeColor=#6881B3;gradientColor=none;gradientDirection=north;strokeWidth=2;shape=mxgraph.networks.desktop_pc;" vertex="1" parent="1">
          <mxGeometry x="550" y="460" width="34" height="60" as="geometry" />
        </mxCell>
        <mxCell id="VfLVzDu5CRr7L_U_nClk-55" style="edgeStyle=orthogonalEdgeStyle;rounded=0;orthogonalLoop=1;jettySize=auto;html=1;strokeColor=#FF3333;" edge="1" parent="1" source="VfLVzDu5CRr7L_U_nClk-47" target="VfLVzDu5CRr7L_U_nClk-1">
          <mxGeometry relative="1" as="geometry" />
        </mxCell>
        <mxCell id="VfLVzDu5CRr7L_U_nClk-47" value="" style="fontColor=#0066CC;verticalAlign=top;verticalLabelPosition=bottom;labelPosition=center;align=center;html=1;outlineConnect=0;fillColor=#CCCCCC;strokeColor=#6881B3;gradientColor=none;gradientDirection=north;strokeWidth=2;shape=mxgraph.networks.nas_filer;" vertex="1" parent="1">
          <mxGeometry x="240" y="80" width="100" height="30" as="geometry" />
        </mxCell>
        <mxCell id="VfLVzDu5CRr7L_U_nClk-48" value="getaway" style="text;html=1;align=center;verticalAlign=middle;resizable=0;points=[];autosize=1;strokeColor=none;" vertex="1" parent="1">
          <mxGeometry x="258" y="40" width="60" height="20" as="geometry" />
        </mxCell>
        <mxCell id="VfLVzDu5CRr7L_U_nClk-77" value="" style="edgeStyle=orthogonalEdgeStyle;rounded=0;orthogonalLoop=1;jettySize=auto;html=1;strokeColor=#000066;" edge="1" parent="1" source="VfLVzDu5CRr7L_U_nClk-60" target="VfLVzDu5CRr7L_U_nClk-3">
          <mxGeometry relative="1" as="geometry" />
        </mxCell>
        <mxCell id="VfLVzDu5CRr7L_U_nClk-60" value="dispatcher" style="text;html=1;align=center;verticalAlign=middle;resizable=0;points=[];autosize=1;strokeColor=none;" vertex="1" parent="1">
          <mxGeometry x="435" y="290" width="70" height="20" as="geometry" />
        </mxCell>
        <mxCell id="VfLVzDu5CRr7L_U_nClk-75" style="edgeStyle=orthogonalEdgeStyle;rounded=0;orthogonalLoop=1;jettySize=auto;html=1;strokeColor=#000066;" edge="1" parent="1" source="VfLVzDu5CRr7L_U_nClk-64">
          <mxGeometry relative="1" as="geometry">
            <mxPoint x="180" y="237.5" as="targetPoint" />
          </mxGeometry>
        </mxCell>
        <mxCell id="VfLVzDu5CRr7L_U_nClk-76" value="query" style="edgeLabel;html=1;align=center;verticalAlign=middle;resizable=0;points=[];" vertex="1" connectable="0" parent="VfLVzDu5CRr7L_U_nClk-75">
          <mxGeometry x="-0.1059" relative="1" as="geometry">
            <mxPoint y="1" as="offset" />
          </mxGeometry>
        </mxCell>
        <mxCell id="VfLVzDu5CRr7L_U_nClk-64" value="" style="fontColor=#0066CC;verticalAlign=top;verticalLabelPosition=bottom;labelPosition=center;align=center;html=1;outlineConnect=0;fillColor=#CCCCCC;strokeColor=#6881B3;gradientColor=none;gradientDirection=north;strokeWidth=2;shape=mxgraph.networks.server_storage;" vertex="1" parent="1">
          <mxGeometry x="-10" y="185" width="105" height="105" as="geometry" />
        </mxCell>
        <mxCell id="VfLVzDu5CRr7L_U_nClk-65" value="ES" style="text;html=1;align=center;verticalAlign=middle;resizable=0;points=[];autosize=1;strokeColor=none;" vertex="1" parent="1">
          <mxGeometry y="300" width="30" height="20" as="geometry" />
        </mxCell>
        <mxCell id="VfLVzDu5CRr7L_U_nClk-78" value="&lt;b&gt;&lt;font style=&quot;font-size: 14px&quot;&gt;多云拓扑图&lt;/font&gt;&lt;/b&gt;" style="text;html=1;align=center;verticalAlign=middle;resizable=0;points=[];autosize=1;strokeColor=none;" vertex="1" parent="1">
          <mxGeometry x="255" y="560" width="90" height="20" as="geometry" />
        </mxCell>
      </root>
    </mxGraphModel>
  </diagram>
</mxfile>
